G04 Generated by Ultiboard 14.2 *
%FSLAX34Y34*%
%MOMM*%

%ADD10C,0.0001*%
%ADD11C,0.7000*%
%ADD12C,0.1270*%
%ADD13R,2.0000X2.0000*%
%ADD14C,2.0000*%
%ADD15C,1.6000*%
%ADD16R,1.6000X1.6000*%
%ADD17C,1.5000*%
%ADD18R,1.5000X1.5000*%
%ADD19R,1.8000X1.8000*%
%ADD20C,1.8000*%
%ADD21C,1.4224*%
%ADD22R,1.0000X3.0000*%
%ADD23R,3.0000X1.0000*%


G04 ColorRGB 0000FF for the following layer *
%LNCopper Bottom*%
%LPD*%
G54D10*
G54D11*
X63500Y39896D02*
X63500Y38100D01*
X63500Y39896D02*
X66784Y43180D01*
X63500Y38100D02*
X71120Y45720D01*
X160020Y45720D01*
X177800Y63500D01*
X199260Y42040D02*
X177800Y63500D01*
X199260Y42040D02*
X507156Y42040D01*
X601006Y135890D01*
X544593Y49293D02*
X543560Y48260D01*
X63500Y63500D02*
X93980Y63500D01*
X101600Y71120D01*
X177800Y63500D02*
X177800Y76200D01*
X198120Y106680D02*
X238760Y66040D01*
X193040Y93980D02*
X232980Y54040D01*
X502185Y54040D01*
X238760Y66040D02*
X497215Y66040D01*
X547943Y116768D01*
X502185Y54040D02*
X590550Y142405D01*
X544593Y49293D02*
X569450Y49293D01*
X579120Y58963D02*
X569450Y49293D01*
X579120Y58963D02*
X579120Y66040D01*
X624840Y111760D01*
X198120Y127000D02*
X242570Y82550D01*
X457409Y82550D01*
X497143Y122284D01*
X563880Y73660D02*
X614110Y123890D01*
X53040Y101900D02*
X33020Y121920D01*
X81322Y101900D02*
X53040Y101900D01*
X82592Y103170D02*
X81322Y101900D01*
X82592Y103170D02*
X107650Y103170D01*
X91880Y141800D02*
X127000Y106680D01*
X107650Y103170D02*
X116840Y93980D01*
X127000Y106680D02*
X198120Y106680D01*
X116840Y93980D02*
X193040Y93980D01*
X420943Y111063D02*
X432945Y99060D01*
X447040Y99060D01*
X33020Y121920D02*
X33020Y388620D01*
X66082Y121850D02*
X81322Y121850D01*
X57150Y130782D02*
X66082Y121850D01*
X157480Y127000D02*
X198120Y127000D01*
X157480Y127000D02*
X149860Y134620D01*
X246380Y109220D02*
X223520Y132080D01*
X378460Y109220D02*
X246380Y109220D01*
X395543Y126303D02*
X378460Y109220D01*
X395543Y130212D02*
X395543Y126303D01*
X420943Y130212D02*
X420943Y111063D01*
X497143Y122284D02*
X497143Y130212D01*
X522543Y130212D02*
X522543Y123763D01*
X510540Y111760D01*
X547943Y116768D02*
X547943Y130212D01*
X624840Y111760D02*
X908385Y111760D01*
X614110Y123890D02*
X903545Y123890D01*
X945780Y166125D01*
X908385Y111760D02*
X963560Y166935D01*
X76242Y164660D02*
X76242Y146880D01*
X81322Y141800D01*
X91880Y141800D01*
X149860Y149860D02*
X149860Y134620D01*
X223520Y132080D02*
X223520Y175260D01*
X321908Y130212D02*
X304800Y147320D01*
X304800Y155612D01*
X321908Y130212D02*
X370143Y130212D01*
X431103Y161290D02*
X446343Y146050D01*
X446343Y130212D02*
X471743Y130212D01*
X443803Y132752D02*
X443803Y141543D01*
X459043Y156783D02*
X443803Y141543D01*
X443803Y132752D02*
X446343Y130212D01*
X497143Y130212D02*
X497840Y130910D01*
X517670Y165100D02*
X497840Y145270D01*
X497840Y130910D02*
X497840Y145270D01*
X601006Y135890D02*
X689610Y135890D01*
X590550Y142405D02*
X590550Y196850D01*
X689610Y135890D02*
X706120Y152400D01*
X76242Y164660D02*
X88900Y177318D01*
X149860Y149860D02*
X177800Y177800D01*
X254000Y155612D02*
X259236Y150376D01*
X274836Y150376D01*
X254000Y155612D02*
X254000Y188769D01*
X274836Y150376D02*
X297180Y172720D01*
X344605Y172720D02*
X356035Y161290D01*
X431103Y161290D01*
X459043Y188632D02*
X459043Y156783D01*
X517670Y165100D02*
X551180Y165100D01*
X558800Y157480D02*
X561340Y157480D01*
X551180Y165100D02*
X558800Y157480D01*
X632460Y165100D02*
X614680Y165100D01*
X660400Y193040D02*
X632460Y165100D01*
X736600Y152400D02*
X660400Y228600D01*
X736600Y152400D02*
X855980Y152400D01*
X914890Y152400D02*
X855980Y152400D01*
X893510Y189930D01*
X914890Y152400D02*
X928370Y165880D01*
X928370Y613900D02*
X928370Y165880D01*
X945780Y166125D02*
X945780Y622240D01*
X963560Y166935D02*
X963560Y634140D01*
X88900Y177318D02*
X88900Y215900D01*
X114300Y177800D02*
X152400Y215900D01*
X220980Y177800D02*
X223520Y175260D01*
X297180Y172720D02*
X344605Y172720D01*
X393675Y182880D02*
X370143Y206412D01*
X393675Y182880D02*
X434340Y182880D01*
X579120Y182880D02*
X485140Y182880D01*
X590550Y171450D02*
X579120Y182880D01*
X629920Y187960D02*
X629920Y208280D01*
X741680Y210820D02*
X741680Y177800D01*
X910590Y173990D02*
X911860Y172720D01*
X910590Y608330D02*
X910590Y173990D01*
X247650Y199390D02*
X158260Y199390D01*
X152400Y205250D01*
X152400Y265980D01*
X247650Y199390D02*
X254000Y193040D01*
X254000Y188769D02*
X297043Y231812D01*
X325120Y218440D02*
X304800Y198120D01*
X395543Y206412D02*
X395543Y230443D01*
X420943Y206412D02*
X420943Y217743D01*
X453963Y214032D02*
X446343Y206412D01*
X459043Y188632D02*
X471743Y201332D01*
X464123Y214032D02*
X471743Y206412D01*
X471743Y201332D02*
X471743Y206412D01*
X471743Y219137D01*
X497143Y206412D02*
X497143Y226757D01*
X522543Y206412D02*
X522543Y226757D01*
X537210Y217145D02*
X547943Y206412D01*
X558800Y228600D02*
X590550Y196850D01*
X629920Y208280D02*
X609600Y228600D01*
X660400Y228600D02*
X660400Y193040D01*
X863600Y190500D02*
X825500Y228600D01*
X863600Y190500D02*
X881380Y208280D01*
X881380Y261620D01*
X893510Y189930D02*
X893510Y305370D01*
X76200Y228600D02*
X88900Y215900D01*
X350520Y218440D02*
X325120Y218440D01*
X350520Y218440D02*
X373380Y241300D01*
X420943Y217743D02*
X444500Y241300D01*
X453963Y214032D02*
X464123Y214032D01*
X471743Y219137D02*
X459740Y231140D01*
X497143Y226757D02*
X469900Y254000D01*
X522543Y226757D02*
X495300Y254000D01*
X537210Y283210D02*
X537210Y217145D01*
X759460Y228600D02*
X741680Y210820D01*
X863600Y215900D02*
X825500Y254000D01*
X203200Y279400D02*
X153670Y229870D01*
X226060Y228600D02*
X177800Y228600D01*
X226060Y228600D02*
X261620Y264160D01*
X254000Y231812D02*
X280072Y231812D01*
X300990Y252730D01*
X297043Y231812D02*
X330872Y231812D01*
X355600Y256540D01*
X395543Y230443D02*
X419100Y254000D01*
X444500Y241300D02*
X444500Y254000D01*
X759460Y228600D02*
X825500Y228600D01*
X76200Y254000D02*
X109220Y254000D01*
X111760Y251460D01*
X152400Y265980D02*
X137400Y280980D01*
X220410Y261050D02*
X220410Y366330D01*
X220410Y261050D02*
X213360Y254000D01*
X261620Y264160D02*
X295450Y264160D01*
X302665Y271375D01*
X300990Y252730D02*
X323850Y252730D01*
X332740Y261620D01*
X332740Y284480D01*
X355600Y256540D02*
X355600Y279400D01*
X678180Y271780D02*
X660400Y254000D01*
X751840Y254000D02*
X739140Y266700D01*
X825500Y254000D02*
X751840Y254000D01*
X881380Y261620D02*
X863600Y279400D01*
X76200Y304800D02*
X100020Y280980D01*
X137400Y280980D01*
X254000Y279400D02*
X254000Y317500D01*
X302665Y281535D02*
X318310Y297180D01*
X302665Y271375D02*
X302665Y281535D01*
X304800Y279400D02*
X304800Y307340D01*
X332740Y284480D02*
X344170Y295910D01*
X490920Y329500D02*
X537210Y283210D01*
X497840Y292100D02*
X515620Y274320D01*
X520700Y274320D01*
X660450Y281146D02*
X547796Y393800D01*
X660450Y281146D02*
X660450Y279450D01*
X678180Y297180D02*
X678180Y271780D01*
X741680Y299720D02*
X762000Y279400D01*
X812800Y279400D02*
X762000Y279400D01*
X76200Y304800D02*
X76200Y556260D01*
X304800Y307340D02*
X322580Y325120D01*
X322580Y297180D02*
X372110Y346710D01*
X318310Y297180D02*
X322580Y297180D01*
X344170Y295910D02*
X354330Y295910D01*
X419100Y360680D01*
X406400Y292100D02*
X497840Y292100D01*
X699770Y318770D02*
X678180Y297180D01*
X706120Y299720D02*
X741680Y299720D01*
X839996Y304800D02*
X763796Y381000D01*
X863600Y304800D02*
X839996Y304800D01*
X893510Y305370D02*
X843280Y355600D01*
X167400Y327980D02*
X185100Y327980D01*
X198120Y314960D01*
X233680Y337820D02*
X254000Y317500D01*
X718294Y318770D02*
X699770Y318770D01*
X749300Y349776D02*
X718294Y318770D01*
X233680Y396240D02*
X233680Y337820D01*
X372110Y346710D02*
X372110Y363438D01*
X445200Y329500D02*
X419100Y355600D01*
X444500Y360680D02*
X457200Y347980D01*
X445200Y329500D02*
X490920Y329500D01*
X686805Y359675D02*
X711200Y335280D01*
X220410Y366330D02*
X213360Y373380D01*
X264160Y355600D02*
X292100Y383540D01*
X264160Y355600D02*
X254000Y355600D01*
X304800Y355600D02*
X355600Y355600D01*
X300990Y359410D02*
X300990Y372919D01*
X300990Y359410D02*
X304800Y355600D01*
X372110Y363438D02*
X342900Y392648D01*
X393700Y393800D02*
X393700Y365760D01*
X419100Y355600D02*
X419100Y393800D01*
X444500Y360680D02*
X444500Y403860D01*
X469900Y381000D02*
X482600Y368300D01*
X482600Y355600D01*
X495300Y381000D02*
X508000Y368300D01*
X508000Y355600D01*
X656325Y359675D02*
X686805Y359675D01*
X762000Y381000D02*
X749300Y368300D01*
X749300Y349776D01*
X843280Y355600D02*
X812800Y355600D01*
X182880Y386080D02*
X195580Y373380D01*
X213360Y373380D01*
X300990Y372919D02*
X317500Y389429D01*
X292100Y383540D02*
X292100Y393700D01*
X469900Y393800D02*
X469900Y381000D01*
X495300Y393800D02*
X495300Y381000D01*
X656325Y385075D02*
X667490Y396240D01*
X763796Y381000D02*
X762000Y381000D01*
X152400Y406400D02*
X127000Y431800D01*
X152400Y457200D02*
X203200Y406400D01*
X226060Y429260D01*
X238760Y401320D02*
X233680Y396240D01*
X266700Y419100D02*
X266700Y393800D01*
X317500Y389429D02*
X317500Y393800D01*
X342900Y392648D02*
X342900Y393800D01*
X340360Y421640D02*
X368300Y393700D01*
X444500Y403860D02*
X454660Y414020D01*
X551180Y424180D02*
X520800Y393800D01*
X547796Y393800D02*
X546100Y393800D01*
X571500Y406500D02*
X571500Y393800D01*
X594260Y429260D02*
X571500Y406500D01*
X596900Y393800D02*
X596900Y401320D01*
X604520Y408940D01*
X667490Y396240D02*
X680720Y396240D01*
X812800Y406400D02*
X749400Y469800D01*
X779780Y388620D02*
X756920Y411480D01*
X858520Y388620D02*
X779780Y388620D01*
X850900Y406400D02*
X812800Y406400D01*
X863600Y419100D02*
X850900Y406400D01*
X858520Y388620D02*
X863600Y393700D01*
X889000Y393700D01*
X203200Y482600D02*
X266700Y419100D01*
X289560Y421640D02*
X340360Y421640D01*
X454660Y414020D02*
X478164Y414020D01*
X495300Y431156D01*
X604520Y408940D02*
X624840Y408940D01*
X637541Y429260D02*
X656325Y410475D01*
X703580Y411480D02*
X685800Y429260D01*
X756920Y411480D02*
X703580Y411480D01*
X863600Y419100D02*
X889000Y419100D01*
X127000Y431800D02*
X101600Y431800D01*
X154940Y444500D02*
X147320Y436880D01*
X165100Y444500D02*
X154940Y444500D01*
X495300Y431156D02*
X495300Y431800D01*
X495300Y434340D02*
X495300Y508000D01*
X495300Y434340D02*
X510540Y449580D01*
X594260Y429260D02*
X637541Y429260D01*
X723900Y449580D02*
X741680Y431800D01*
X754380Y431800D01*
X848360Y444500D02*
X787400Y505460D01*
X848360Y444500D02*
X889000Y444500D01*
X152400Y482600D02*
X152400Y457200D01*
X469900Y457200D02*
X469900Y508000D01*
X510540Y449580D02*
X723900Y449580D01*
X127000Y508000D02*
X152400Y482600D01*
X205640Y530860D02*
X266700Y469800D01*
X196750Y565150D02*
X292100Y469800D01*
X317500Y480060D02*
X294640Y502920D01*
X317500Y469800D02*
X317500Y480060D01*
X342900Y635000D02*
X342900Y469800D01*
X368300Y635000D02*
X368300Y469800D01*
X393700Y635000D02*
X393700Y469800D01*
X419100Y635000D02*
X419100Y469800D01*
X444500Y469800D02*
X444500Y518160D01*
X520700Y469800D02*
X520700Y505460D01*
X571500Y469800D02*
X574040Y472340D01*
X574040Y480060D01*
X581660Y487680D01*
X635000Y487680D01*
X749400Y469800D02*
X596900Y469800D01*
X762000Y482600D02*
X786130Y506730D01*
X815340Y480060D02*
X787400Y508000D01*
X855980Y482600D02*
X848360Y474980D01*
X871220Y482600D02*
X855980Y482600D01*
X889000Y469900D02*
X883920Y469900D01*
X871220Y482600D01*
X896620Y477520D02*
X896620Y597790D01*
X896620Y477520D02*
X889000Y469900D01*
X127000Y582470D02*
X127000Y508000D01*
X469900Y508000D02*
X487680Y525780D01*
X520700Y505460D02*
X518160Y508000D01*
X541020Y525780D02*
X561340Y505460D01*
X759460Y505460D01*
X787400Y508000D02*
X762000Y508000D01*
X759460Y505460D02*
X762000Y508000D01*
X786130Y506730D02*
X788670Y506730D01*
X788670Y508000D02*
X787400Y506730D01*
X787400Y505460D02*
X787400Y508000D01*
X788670Y508000D02*
X812800Y508000D01*
X302260Y535940D02*
X317500Y520700D01*
X320040Y520700D01*
X444500Y518160D02*
X464820Y538480D01*
X487680Y525780D02*
X541020Y525780D01*
X567690Y524510D02*
X803910Y524510D01*
X553720Y538480D02*
X567690Y524510D01*
X803910Y524510D02*
X817880Y538480D01*
X139700Y563880D02*
X139700Y543560D01*
X152400Y530860D01*
X205640Y530860D01*
X257387Y549487D02*
X269240Y537633D01*
X302260Y535940D02*
X302260Y614680D01*
X464820Y538480D02*
X553720Y538480D01*
X556260Y553720D02*
X571500Y538480D01*
X718820Y538480D01*
X739140Y558800D01*
X817880Y538480D02*
X817880Y579120D01*
X76200Y556260D02*
X162560Y642620D01*
X153670Y577850D02*
X139700Y563880D01*
X187960Y565150D02*
X196750Y565150D01*
X257387Y614680D02*
X257387Y549487D01*
X452120Y568960D02*
X467360Y553720D01*
X556260Y553720D01*
X609600Y556260D02*
X586740Y579120D01*
X703580Y563880D02*
X703580Y612140D01*
X739140Y558800D02*
X739140Y645160D01*
X147781Y603250D02*
X127000Y582470D01*
X162560Y577850D02*
X153670Y577850D01*
X441960Y568960D02*
X452120Y568960D01*
X487680Y574040D02*
X487680Y642180D01*
X487680Y574040D02*
X490220Y571500D01*
X508000Y601980D02*
X535940Y574040D01*
X558800Y609600D02*
X558800Y584200D01*
X586740Y579120D02*
X586740Y612140D01*
X609600Y599440D02*
X609600Y584200D01*
X762000Y584200D02*
X776350Y598550D01*
X817880Y579120D02*
X812800Y584200D01*
X812800Y607950D01*
X162560Y603250D02*
X147781Y603250D01*
X187960Y590550D02*
X214630Y590550D01*
X218440Y594360D02*
X214630Y590550D01*
X508000Y635000D02*
X508000Y601980D01*
X609600Y599440D02*
X635000Y624840D01*
X776350Y598550D02*
X776350Y622300D01*
X812800Y607950D02*
X798450Y622300D01*
X896620Y597790D02*
X846710Y647700D01*
X852920Y666000D02*
X910590Y608330D01*
X187960Y615950D02*
X187960Y624840D01*
X198120Y635000D01*
X237067Y635000D02*
X257387Y614680D01*
X302260Y614680D02*
X252730Y664210D01*
X533400Y635000D02*
X558800Y609600D01*
X586740Y612140D02*
X609600Y635000D01*
X635000Y624840D02*
X635000Y635000D01*
X703580Y612140D02*
X685800Y629920D01*
X928370Y613900D02*
X864270Y678000D01*
X945780Y622240D02*
X878020Y690000D01*
X162560Y642620D02*
X175260Y642620D01*
X198120Y635000D02*
X237067Y635000D01*
X535500Y690000D02*
X487680Y642180D01*
X685800Y635000D02*
X685800Y673100D01*
X685800Y629920D02*
X685800Y635000D01*
X711200Y635000D02*
X711200Y640080D01*
X749120Y678000D01*
X739140Y645160D02*
X759980Y666000D01*
X846710Y647700D02*
X776350Y647700D01*
X963560Y634140D02*
X891580Y706120D01*
X759980Y666000D02*
X852920Y666000D01*
X749120Y678000D02*
X864270Y678000D01*
X878020Y690000D02*
X535500Y690000D01*
X693420Y706120D02*
X690880Y708660D01*
X891580Y706120D02*
X693420Y706120D01*
X95250Y664210D02*
X57150Y626110D01*
X57150Y130782D01*
X252730Y664210D02*
X95250Y664210D01*
X269240Y537633D02*
X269240Y523240D01*
X469900Y457200D02*
X457200Y444500D01*
X373380Y284480D02*
X411480Y322580D01*
X373380Y241300D02*
X373380Y284480D01*
G54D12*
X-2543Y-2540D02*
X-2543Y70866D01*
X-2543Y-2540D02*
X96695Y-2540D01*
X989840Y-2540D02*
X890602Y-2540D01*
X989840Y-2540D02*
X989840Y70866D01*
X989840Y731525D02*
X989840Y658118D01*
X989840Y731525D02*
X890602Y731525D01*
X-2543Y731525D02*
X96695Y731525D01*
X-2543Y731525D02*
X-2543Y658118D01*
X-52543Y-2540D02*
X-152543Y-2540D01*
X-102543Y-52540D02*
X-102543Y47460D01*
X-140043Y-2540D02*
G75*
D01*
G02X-140043Y-2540I37500J0*
G01*
X1039840Y-2540D02*
X1139840Y-2540D01*
X1089840Y-52540D02*
X1089840Y47460D01*
X1052340Y-2540D02*
G75*
D01*
G02X1052340Y-2540I37500J0*
G01*
X1077340Y-2540D02*
G75*
D01*
G02X1077340Y-2540I12500J0*
G01*
X-52543Y731525D02*
X-152543Y731525D01*
X-102543Y681525D02*
X-102543Y781525D01*
X-140043Y731525D02*
G75*
D01*
G02X-140043Y731525I37500J0*
G01*
X-127543Y731525D02*
G75*
D01*
G02X-127543Y731525I25000J0*
G01*
X-115043Y731525D02*
G75*
D01*
G02X-115043Y731525I12500J0*
G01*
G54D13*
X63500Y38100D03*
X76200Y228600D03*
X508000Y355600D03*
X101600Y431800D03*
X685800Y635000D03*
X533400Y635000D03*
X635000Y635000D03*
G54D14*
X63500Y63500D03*
X76200Y254000D03*
X102400Y312980D02*
X112400Y312980D01*
X112400Y342980D01*
X102400Y342980D01*
X102400Y312980D01*D02*
X162400Y312980D02*
X172400Y312980D01*
X172400Y342980D01*
X162400Y342980D01*
X162400Y312980D01*D02*
X122400Y275980D02*
X152400Y275980D01*
X152400Y285980D01*
X122400Y285980D01*
X122400Y275980D01*D02*
X482600Y355600D03*
X76200Y431800D03*
X257387Y614680D03*
X257387Y549487D03*
X302260Y614680D03*
X302260Y549487D03*
X711200Y635000D03*
X508000Y635000D03*
X609600Y635000D03*
G54D15*
X543560Y48260D03*
X101600Y71120D03*
X81322Y141800D03*
X81322Y121850D03*
X177800Y76200D03*
X563880Y73660D03*
X447040Y99060D03*
X510540Y111760D03*
X370143Y206412D03*
X420943Y130212D03*
X395543Y130212D03*
X446343Y130212D03*
X497143Y130212D03*
X471743Y130212D03*
X522543Y130212D03*
X547943Y130212D03*
X522543Y206412D03*
X446343Y206412D03*
X420943Y206412D03*
X395543Y206412D03*
X497143Y206412D03*
X471743Y206412D03*
X547943Y206412D03*
X370143Y130212D03*
X149860Y134620D03*
X706120Y152400D03*
X177800Y228600D03*
X254000Y155612D03*
X254000Y231812D03*
X304800Y231812D03*
X304800Y155612D03*
X558800Y157480D03*
X614680Y165100D03*
X812800Y228600D03*
X812800Y152400D03*
X911860Y172720D03*
X88900Y177800D03*
X114300Y177800D03*
X220980Y177800D03*
X434340Y182880D03*
X485140Y182880D03*
X629920Y187960D03*
X741680Y177800D03*
X304800Y198120D03*
X459740Y231140D03*
X111760Y251460D03*
X213360Y254000D03*
X739140Y266700D03*
X203200Y355600D03*
X203200Y279400D03*
X254000Y279400D03*
X254000Y355600D03*
X304800Y279400D03*
X304800Y355600D03*
X355600Y355600D03*
X355600Y279400D03*
X406400Y292100D03*
X520700Y274320D03*
X812800Y279400D03*
X812800Y355600D03*
X706120Y299720D03*
X198120Y314960D03*
X322580Y327660D03*
X411480Y322580D03*
X457200Y347980D03*
X711200Y335280D03*
X393700Y365760D03*
X33020Y388620D03*
X182880Y386080D03*
X152400Y406400D03*
X152400Y482600D03*
X203200Y482600D03*
X203200Y406400D03*
X238760Y401320D03*
X292100Y393800D03*
X317500Y393800D03*
X342900Y393800D03*
X368300Y393800D03*
X393700Y393800D03*
X419100Y393800D03*
X444500Y393800D03*
X469900Y393800D03*
X495300Y393800D03*
X520700Y393800D03*
X546100Y393800D03*
X571500Y393800D03*
X596900Y393800D03*
X266700Y469800D03*
X292100Y469800D03*
X317500Y469800D03*
X342900Y469800D03*
X368300Y469800D03*
X393700Y469800D03*
X419100Y469800D03*
X444500Y469800D03*
X469900Y469800D03*
X495300Y469800D03*
X520700Y469800D03*
X546100Y469800D03*
X571500Y469800D03*
X596900Y469800D03*
X624840Y408940D03*
X680720Y396240D03*
X762000Y406400D03*
X762000Y482600D03*
X812800Y406400D03*
X812800Y482600D03*
X226060Y429260D03*
X289560Y421640D03*
X551180Y424180D03*
X685800Y429260D03*
X754380Y431800D03*
X147320Y436880D03*
X457200Y444500D03*
X635000Y487680D03*
X848360Y474980D03*
X294640Y502920D03*
X469900Y508000D03*
X495300Y508000D03*
X518160Y508000D03*
X558800Y584200D03*
X558800Y508000D03*
X609600Y584200D03*
X609600Y508000D03*
X762000Y508000D03*
X762000Y584200D03*
X812800Y584200D03*
X812800Y508000D03*
X269240Y523240D03*
X320040Y520700D03*
X441960Y568960D03*
X490220Y571500D03*
X609600Y556260D03*
X703580Y563880D03*
X535940Y574040D03*
X218440Y594360D03*
X175260Y642620D03*
X685800Y673100D03*
X690880Y708660D03*
X558800Y228600D03*
G54D16*
X81322Y101900D03*
X177800Y127000D03*
X177800Y177800D03*
X266700Y393800D03*
X609600Y228600D03*
G54D17*
X762000Y152400D03*
X762000Y381000D03*
G54D18*
X762000Y254000D03*
X762000Y279400D03*
G54D19*
X863600Y190500D03*
X419100Y254000D03*
X863600Y304800D03*
X889000Y469900D03*
X187960Y615950D03*
X776350Y647700D03*
X342900Y635000D03*
G54D20*
X863600Y215900D03*
X444500Y254000D03*
X469900Y254000D03*
X495300Y254000D03*
X863600Y279400D03*
X889000Y444500D03*
X889000Y419100D03*
X889000Y393700D03*
X187960Y565150D03*
X187960Y590550D03*
X162560Y552450D03*
X162560Y577850D03*
X162560Y603250D03*
X798450Y622300D03*
X776350Y622300D03*
X798450Y647700D03*
X368300Y635000D03*
X393700Y635000D03*
X419100Y635000D03*
G54D21*
X660400Y279400D03*
X660400Y228600D03*
X660400Y254000D03*
X656325Y410475D03*
X656325Y359675D03*
X656325Y385075D03*
G54D22*
X107400Y327980D03*
X167400Y327980D03*
G54D23*
X137400Y280980D03*

M02*
