G04 Generated by Ultiboard 14.2 *
%FSLAX34Y34*%
%MOMM*%

%ADD10C,0.0001*%
%ADD11C,0.0010*%
%ADD12C,0.1270*%


G04 ColorRGB 00FFFF for the following layer *
%LNBoard Outline*%
%LPD*%
G54D10*
G54D11*
X-3Y0D02*
X987300Y0D01*
X987300Y728985D01*
X-3Y728985D01*
X-3Y0D01*
X104140Y310440D02*
X110140Y310440D01*
X110140Y345440D01*
X104140Y345440D01*
X104140Y310440D01*
X164360Y310480D02*
X170360Y310480D01*
X170360Y345380D01*
X164360Y345380D01*
X164360Y310480D01*
X119760Y277980D02*
X154860Y277980D01*
X154860Y283980D01*
X119760Y283980D01*
X119760Y277980D01*
G54D12*
X-2543Y-2540D02*
X-2543Y70866D01*
X-2543Y-2540D02*
X96695Y-2540D01*
X989840Y-2540D02*
X890602Y-2540D01*
X989840Y-2540D02*
X989840Y70866D01*
X989840Y731525D02*
X989840Y658118D01*
X989840Y731525D02*
X890602Y731525D01*
X-2543Y731525D02*
X96695Y731525D01*
X-2543Y731525D02*
X-2543Y658118D01*
X-52543Y-2540D02*
X-152543Y-2540D01*
X-102543Y-52540D02*
X-102543Y47460D01*
X-140043Y-2540D02*
G75*
D01*
G02X-140043Y-2540I37500J0*
G01*
X1039840Y-2540D02*
X1139840Y-2540D01*
X1089840Y-52540D02*
X1089840Y47460D01*
X1052340Y-2540D02*
G75*
D01*
G02X1052340Y-2540I37500J0*
G01*
X1077340Y-2540D02*
G75*
D01*
G02X1077340Y-2540I12500J0*
G01*
X-52543Y731525D02*
X-152543Y731525D01*
X-102543Y681525D02*
X-102543Y781525D01*
X-140043Y731525D02*
G75*
D01*
G02X-140043Y731525I37500J0*
G01*
X-127543Y731525D02*
G75*
D01*
G02X-127543Y731525I25000J0*
G01*
X-115043Y731525D02*
G75*
D01*
G02X-115043Y731525I12500J0*
G01*

M02*
