M48
METRIC,TZ
VER,1
FMAT,2
DETECT,ON
ATC,ON
T1C1.0000
T2C0.8000
T3C0.9000
T4C1.0668
T5C0.5000
T6C3.2000
T7C3.0000
%
T1
X63500Y38100
Y63500
X76200Y254000
Y228600
X444500Y254000
X469900
X495300
X419100
X508000Y355600
X482600
X889000Y444500
Y419100
Y393700
Y469900
X685800Y635000
X711200
X368300
X393700
X419100
X342900
X533400
X508000
X635000
X609600
T2
X543560Y48260
X101600Y71120
X81322Y141800
Y121850
Y101900
X177800Y76200
Y127000
X563880Y73660
X447040Y99060
X510540Y111760
X370143Y206412
X420943Y130212
X395543
X446343
X497143
X471743
X522543
X547943
X522543Y206412
X446343
X420943
X395543
X497143
X471743
X547943
X370143Y130212
X149860Y134620
X706120Y152400
X177800Y177800
Y228600
X254000Y155612
Y231812
X304800
Y155612
X558800Y157480
X614680Y165100
X812800Y228600
Y152400
X911860Y172720
X88900Y177800
X114300
X220980
X434340Y182880
X485140
X629920Y187960
X741680Y177800
X863600Y190500
Y215900
X304800Y198120
X459740Y231140
X111760Y251460
X213360Y254000
X739140Y266700
X203200Y355600
Y279400
X254000
Y355600
X304800Y279400
Y355600
X355600
Y279400
X406400Y292100
X520700Y274320
X812800Y279400
Y355600
X863600Y304800
Y279400
X706120Y299720
X198120Y314960
X322580Y327660
X411480Y322580
X457200Y347980
X711200Y335280
X393700Y365760
X33020Y388620
X182880Y386080
X152400Y406400
Y482600
X203200
Y406400
X238760Y401320
X292100Y393800
X317500
X342900
X368300
X393700
X419100
X444500
X469900
X495300
X520700
X546100
X571500
X596900
X266700Y469800
X292100
X317500
X342900
X368300
X393700
X419100
X444500
X469900
X495300
X520700
X546100
X571500
X596900
X266700Y393800
X624840Y408940
X680720Y396240
X762000Y406400
Y482600
X812800Y406400
Y482600
X101600Y431800
X76200
X226060Y429260
X289560Y421640
X551180Y424180
X685800Y429260
X754380Y431800
X147320Y436880
X457200Y444500
X635000Y487680
X848360Y474980
X294640Y502920
X469900Y508000
X495300
X518160
X558800Y584200
Y508000
X609600Y584200
Y508000
X762000
Y584200
X812800
Y508000
X187960Y565150
Y590550
X162560Y552450
Y577850
Y603250
X187960Y615950
X269240Y523240
X320040Y520700
X257387Y614680
Y549487
X302260Y614680
Y549487
X441960Y568960
X490220Y571500
X609600Y556260
X703580Y563880
X535940Y574040
X218440Y594360
X798450Y622300
X776350
Y647700
X798450
X175260Y642620
X685800Y673100
X690880Y708660
X609600Y228600
X558800
T3
X762000Y152400
Y254000
Y381000
Y279400
T4
X660400Y279400
Y228600
Y254000
X656325Y410475
Y359675
Y385075
T5
X107900Y312980G85X107900Y342980
X107900Y342980G85X106900Y342980
X106900Y342980G85X106900Y312980
X106900Y312980G85X107900Y312980
X167900Y312980G85X167900Y342980
X167900Y342980G85X166900Y342980
X166900Y342980G85X166900Y312980
X166900Y312980G85X167900Y312980
X122400Y280480G85X152400Y280480
X152400Y280480G85X152400Y281480
X152400Y281480G85X122400Y281480
X122400Y281480G85X122400Y280480
T6
X101665Y533465
X101674Y635382
T7
X33020Y698500
X952500Y27940
X25400
X960120Y698500
M30
